<svg xmlns="http://www.w3.org/2000/svg" style="display:none"><symbol id="icon-1" viewBox="0 0 70 70" fill="none"><path d="M35 1.46689C53.5122 1.46689 68.5331 16.5172 68.5331 35C68.5331 53.5122 53.4828 68.5331 35 68.5331C16.4879 68.5331 1.46689 53.4828 1.46689 35C1.43755 16.5172 16.4879 1.46689 35 1.46689ZM35 0C15.6664 0 0 15.6664 0 35C0 54.3336 15.6664 70 35 70C54.3336 70 70 54.3336 70 35C70 15.6664 54.3336 0 35 0Z" fill="#E30613"/>
<path d="M61.6 39.5847H58.5164V37.9778H55.4327V36.7799L51.8445 33.975H49.2935V25.1806C49.2935 23.8658 48.2563 22.7847 46.9948 22.7847H46.2379V21.9959C46.2379 20.6811 45.2007 19.6 43.9392 19.6H22.4379C21.4287 19.6 20.5877 20.272 20.2794 21.207H14V25.9986H20.1392V29.3586C19.2422 29.68 18.5974 30.5566 18.5974 31.6084V37.2181H14V50.0153H18.5974V50.8042C18.5974 52.119 19.6346 53.2 20.8961 53.2H43.9112C44.9204 53.2 45.7614 52.528 46.0697 51.5931H46.9668C47.976 51.5931 48.817 50.9211 49.1253 49.9861H51.8165L55.4047 47.1813V45.9833H58.4883V44.3764H61.572V39.5847H61.6ZM44.7241 21.9959V22.7847H41.6405V29.1833H24.7647V21.1778H43.9392C44.3877 21.1778 44.7241 21.5576 44.7241 21.9959ZM22.466 21.1778H23.2228V29.1833H21.681V21.9959C21.7091 21.5576 22.0455 21.1778 22.466 21.1778ZM15.5698 24.3917V22.7847H20.1673V24.3917H15.5698ZM18.6254 38.7959V40.8411C18.1769 40.5781 17.6443 40.4028 17.0836 40.4028C16.523 40.4028 15.9903 40.5781 15.5418 40.8411V38.7959H18.6254ZM18.6254 43.5875C18.6254 44.464 17.9246 45.1945 17.0836 45.1945C16.2426 45.1945 15.5418 44.464 15.5418 43.5875C15.5418 42.711 16.2426 41.9806 17.0836 41.9806C17.9246 41.9806 18.6254 42.711 18.6254 43.5875ZM15.5698 48.3792V46.334C16.0184 46.5969 16.551 46.7722 17.1117 46.7722C17.6723 46.7722 18.205 46.5969 18.6535 46.334V48.3792H15.5698ZM44.7241 50.775C44.7241 51.2133 44.3877 51.5639 43.9673 51.5639H24.7927V33.1569H23.2509V51.5639H20.9241C20.5036 51.5639 20.1673 51.2133 20.1673 50.775V31.5792C20.1673 31.1409 20.5036 30.7903 20.9241 30.7903H40.0987V49.9861H41.6405V30.7903H43.9392C44.3597 30.7903 44.6961 31.1409 44.6961 31.5792V50.775H44.7241ZM47.7797 49.1973C47.7797 49.6355 47.4433 49.9861 47.0228 49.9861H46.266V31.5792C46.266 30.2644 45.2287 29.1833 43.9673 29.1833H43.2104V24.3917H47.0509C47.4714 24.3917 47.8078 24.7423 47.8078 25.1806V49.1973H47.7797ZM53.919 46.3924L51.368 48.3792H49.3216V35.582H51.368L53.919 37.5687V46.3924ZM57.0026 44.3764H55.4608V39.5847H57.0026V44.3764ZM60.0582 42.7987H58.5164V41.1917H60.0582V42.7987Z" fill="#E30613"/></symbol><symbol id="icon-10" viewBox="0 0 70 70" fill="none"><path d="M35 1.46689C53.5121 1.46689 68.5331 16.5172 68.5331 35C68.5331 53.4828 53.4828 68.5331 35 68.5331C16.4878 68.5331 1.46689 53.4828 1.46689 35C1.46689 16.5172 16.5172 1.46689 35 1.46689ZM35 0C15.6664 0 0 15.6664 0 35C0 54.3336 15.6664 70 35 70C54.3336 70 70 54.3336 70 35C70.0293 15.6664 54.3336 0 35 0Z" fill="#E30613"/>
<path fill-rule="evenodd" clip-rule="evenodd" d="M15.4611 20.2433C13.5542 20.2433 11.9993 21.7982 11.9993 23.7051V42.628C11.9993 44.535 13.5542 46.0899 15.4611 46.0899H18.835C19.4217 48.1435 21.2993 49.6691 23.529 49.6691C25.7587 49.6691 27.6363 48.1435 28.2231 46.0899H47.2926C47.8794 48.1435 49.757 49.6691 51.9867 49.6691C54.2163 49.6691 56.0939 48.1435 56.6807 46.0899H57.1208C58.6757 46.0899 59.9665 44.799 59.9665 43.2441V36.3497C59.9959 36.203 59.9665 36.027 59.9372 35.8803C59.9372 35.851 59.9372 35.851 59.9079 35.8217C59.8492 35.675 59.7905 35.5576 59.6732 35.4402L53.8349 27.3724C53.6296 27.079 53.3069 26.9323 52.9548 26.9323H45.8844V23.7344C45.8844 21.8275 44.3295 20.2726 42.4225 20.2726L15.4611 20.2433ZM15.4611 22.4436H42.4812C43.1853 22.4436 43.7721 23.001 43.7721 23.7344V43.9482H28.3697C27.959 41.6598 25.964 39.9289 23.5583 39.9289C21.182 39.9289 19.1577 41.6598 18.7469 43.9482H15.4611C14.757 43.9482 14.1703 43.3908 14.1703 42.6574V23.7344C14.1703 23.001 14.7277 22.4436 15.4611 22.4436ZM45.9137 29.1033H52.4267L57.7956 36.5551V43.2734C57.7956 43.6548 57.5022 43.9482 57.1208 43.9482H56.7981C56.3873 41.6598 54.3924 39.9289 51.9867 39.9289C49.581 39.9289 47.586 41.6598 47.1753 43.9482H45.9137V29.1033V29.1033ZM23.529 42.0999C25.0252 42.0999 26.2281 43.3028 26.2281 44.799V44.8577C26.1988 46.3246 25.0252 47.4981 23.529 47.4981C22.0328 47.4981 20.8299 46.2952 20.8299 44.799C20.8299 43.3028 22.0328 42.0999 23.529 42.0999ZM52.016 42.0999C53.5122 42.0999 54.7151 43.3028 54.7151 44.799C54.7151 46.2952 53.5122 47.4981 52.016 47.4981C50.5198 47.4981 49.3169 46.2952 49.3169 44.799C49.3169 43.3028 50.4904 42.0999 52.016 42.0999Z" fill="#E30613"/>
<path fill-rule="evenodd" clip-rule="evenodd" d="M29.7193 27.9003C29.1032 27.9003 28.6338 28.3697 28.6045 28.9858C28.6045 29.6018 29.0739 30.0713 29.69 30.1006H29.7193H40.4276C41.0437 30.1006 41.5131 29.6312 41.5425 29.0151C41.5718 28.399 41.0731 27.9296 40.457 27.9003H40.4276H29.7193Z" fill="#E30613"/>
<path fill-rule="evenodd" clip-rule="evenodd" d="M24.8198 32.8C24.2037 32.8 23.7343 33.2694 23.705 33.8855C23.6756 34.5016 24.1744 34.971 24.7905 35.0004H24.8198H40.4275C41.0436 35.0004 41.513 34.5309 41.5423 33.9149C41.5423 33.2988 41.0729 32.8294 40.4568 32.8H40.4275H24.8198Z" fill="#E30613"/></symbol><symbol id="icon-11" viewBox="0 0 70 70" fill="none"><path d="M35 1.46689C53.5121 1.46689 68.5331 16.5172 68.5331 35C68.5331 53.5122 53.4828 68.5331 35 68.5331C16.4878 68.5331 1.46689 53.4828 1.46689 35C1.46689 16.5172 16.5172 1.46689 35 1.46689ZM35 0C15.6664 0 0 15.6664 0 35C0 54.3336 15.6664 70 35 70C54.3336 70 70 54.3336 70 35C70.0293 15.6664 54.3629 0 35 0Z" fill="#E30613"/>
<path d="M57.0427 32.1146H52.2505C51.7213 32.1146 51.2932 32.5434 51.2932 33.0727C51.2932 33.6019 51.7214 34.0307 52.2505 34.0307H57.0427C57.5719 34.0307 58 33.6019 58 33.0727C58 32.5435 57.5719 32.1146 57.0427 32.1146Z" fill="#E30613"/>
<path d="M52.2505 30.1979C52.3768 30.1979 52.4961 30.1734 52.607 30.1291L52.6225 30.1235C52.6225 30.1228 52.6239 30.1228 52.6252 30.1221L57.3978 28.2131V28.2124C57.7516 28.0713 58 27.7267 58 27.3232C58 26.794 57.5718 26.3651 57.0427 26.3651C56.9164 26.3651 56.7971 26.3896 56.6861 26.4339V26.4332L56.6707 26.4402C56.6693 26.4402 56.6693 26.4402 56.6693 26.4402L51.8953 28.3499V28.3506C51.5429 28.4917 51.2931 28.8363 51.2931 29.2398C51.2932 29.769 51.7212 30.1979 52.2505 30.1979Z" fill="#E30613"/>
<path d="M47.4596 28.0041V19.657C47.4596 19.1278 47.0301 18.699 46.5009 18.699C45.9731 18.699 45.5436 19.1278 45.5436 19.657V20.2325L28.2951 25.4065H17.7533C17.2256 25.4065 16.7961 25.8361 16.7961 26.3652V28.2813H13.9213C13.3921 28.2813 12.9626 28.7108 12.9626 29.24V31.156C12.4334 31.156 12.0039 31.5856 12.0039 32.1147V34.0308C12.0039 34.56 12.4334 34.9895 12.9626 34.9895V36.9062C12.9626 37.4355 13.3921 37.8635 13.9213 37.8635H16.7961V39.781C16.7961 40.3103 17.2256 40.7383 17.7533 40.7383H19.1093L21.5868 51.3011H30.2111L27.8206 44.4384C28.1041 44.2728 28.295 43.9668 28.295 43.613C28.295 43.2789 28.1238 42.9842 27.8627 42.813L28.7947 40.8884L45.5435 45.9136V46.4877C45.5435 47.0183 45.973 47.4465 46.5008 47.4465C47.03 47.4465 47.4595 47.0183 47.4595 46.4877V37.9617C49.1777 36.968 50.3343 35.1109 50.3343 32.9829C50.3344 30.8549 49.1778 28.9979 47.4596 28.0041ZM14.8786 35.9475V30.198H16.7961V35.9475H14.8786ZM18.712 27.3233H28.295V38.8222H18.712V27.3233ZM23.107 49.385L21.0787 40.7383H26.737L25.7853 42.7091L25.4385 43.425L25.6997 44.1746L27.5146 49.385H23.107V49.385ZM30.2111 39.3121V37.9604L30.2293 37.9252H30.2111V26.8326L45.5435 22.2334V43.9134L30.2111 39.3121ZM47.4596 35.5138V30.4513C48.0563 31.1272 48.4184 32.0129 48.4184 32.983C48.4184 33.9522 48.0562 34.8386 47.4596 35.5138Z" fill="#E30613"/>
<path d="M57.3978 37.9337L52.6253 36.0232C52.6238 36.0225 52.6225 36.0225 52.6225 36.0218L52.607 36.0162V36.017C52.4962 35.9728 52.3769 35.9475 52.2505 35.9475C51.7213 35.9475 51.2932 36.3763 51.2932 36.9062C51.2932 37.309 51.543 37.6529 51.8954 37.7961L56.6679 39.7052C56.6694 39.7052 56.6707 39.7052 56.6722 39.7066L56.6862 39.7122V39.7108C56.797 39.7557 56.9163 39.7809 57.0427 39.7809C57.5719 39.7809 58 39.3513 58 38.8221C58 38.4193 57.7515 38.0741 57.3978 37.9337Z" fill="#E30613"/></symbol><symbol id="icon-2" viewBox="0 0 70 70" fill="none"><path d="M35 1.46689C53.5121 1.46689 68.5331 16.5172 68.5331 35C68.5331 53.4828 53.5121 68.5625 35 68.5625C16.4878 68.5625 1.46689 53.5122 1.46689 35.0293C1.46689 16.5465 16.5172 1.46689 35 1.46689ZM35 0C15.6664 0 0 15.6664 0 35C0 54.3336 15.6664 70 35 70C54.3336 70 70 54.3336 70 35C70.0293 15.6664 54.3629 0 35 0Z" fill="#E30613"/>
<path d="M37.0245 37.4353C30.5115 37.4353 25.2307 32.1545 25.2307 25.6415C25.2307 19.1286 30.5115 13.8477 37.0245 13.8477C43.5374 13.8477 48.8182 19.1286 48.8182 25.6415C48.8182 32.1252 43.5374 37.406 37.0245 37.4353ZM37.0245 15.52C31.4503 15.52 26.9322 20.038 26.9322 25.6122C26.9322 31.1864 31.4503 35.7044 37.0245 35.7044C42.5986 35.7044 47.1166 31.1864 47.1166 25.6122C47.1166 20.038 42.5986 15.52 37.0245 15.52Z" fill="#E30613"/>
<path d="M55.6539 40.5158C54.6564 39.313 52.9842 38.9903 51.6053 39.753L50.6665 38.6089C49.8157 37.6114 48.3781 37.406 47.2927 38.1101L46.3832 38.7262L45.8258 38.0808C44.975 37.0833 43.5374 36.8779 42.4519 37.582L36.2323 41.6307L29.3086 38.7849C27.1376 37.9048 24.6439 38.2568 22.7956 39.7237L13.9649 46.7354C13.5835 46.9995 13.4955 47.5276 13.7596 47.909C14.0236 48.2903 14.5517 48.3784 14.9331 48.1143C14.9624 48.085 14.9917 48.085 15.0211 48.0556L23.8517 41.0439C25.2306 39.9584 27.0789 39.6944 28.6925 40.3691L40.9263 45.3859C41.7185 45.738 42.0705 46.6768 41.7185 47.4689C41.3958 48.2317 40.5156 48.5837 39.7528 48.3197L31.4796 45.0925C31.0395 44.8872 30.5408 45.0925 30.3647 45.5033C30.1594 45.9433 30.3647 46.4421 30.7755 46.6181C30.8048 46.6181 30.8341 46.6474 30.8635 46.6474L39.1074 49.9039C39.4888 50.0506 39.8995 50.1386 40.3102 50.1386C42.0705 50.1386 43.5081 48.7597 43.5961 46.9995L43.6841 46.9408L52.3094 41.308C53.0429 40.8385 54.011 41.0733 54.4511 41.8067C54.8911 42.5108 54.7151 43.3909 54.0403 43.8897L42.3639 52.1629C40.8677 53.2191 38.9607 53.5712 37.2004 53.0431L27.3429 50.256C25.524 49.7572 23.5877 50.1386 22.1208 51.3415L19.4804 53.5125C19.1284 53.8059 19.0697 54.3633 19.3924 54.7153C19.5391 54.8914 19.7738 55.0087 20.0378 55.0087C20.2432 55.0087 20.4192 54.95 20.5659 54.8327L23.2357 52.691C24.2625 51.8402 25.6414 51.5762 26.9029 51.9282L36.731 54.686C38.99 55.3314 41.4251 54.8914 43.332 53.5418L55.0378 45.2685C56.5047 44.2417 56.8568 42.1881 55.8299 40.7212C55.7419 40.6625 55.7126 40.6038 55.6539 40.5158ZM43.332 38.9903C43.7134 38.7556 44.2122 38.8142 44.4762 39.1663L44.887 39.665L39.7235 43.0682L38.1393 42.3934L43.332 38.9903ZM43.156 45.2392C42.804 44.6231 42.2759 44.1537 41.6598 43.8603L48.2315 39.5477C48.6129 39.313 49.1116 39.3717 49.3756 39.7237L50.1677 40.6919L43.156 45.2392Z" fill="#E30613"/>
<path d="M37.1125 21.945C37.9339 21.9744 38.7554 22.0917 39.5768 22.2971C40.0169 22.4144 40.4863 22.1504 40.633 21.7103C40.7504 21.2702 40.4863 20.8008 40.0463 20.6542C39.3715 20.4781 38.6674 20.3608 37.9926 20.3021V19.1579C37.9926 18.6885 37.6112 18.3071 37.1418 18.3071C36.6724 18.3071 36.291 18.6885 36.291 19.1579V20.3314C34.0027 20.6542 33.7386 22.2091 33.7386 22.9132C33.7386 24.6734 35.5576 25.4069 36.6431 25.8763L36.8484 25.9643L37.1711 26.0817C38.286 26.5217 38.7554 26.7858 38.7554 27.5779C38.7554 28.37 38.2273 28.7514 37.2005 28.8101H37.1418H37.0245C36.0563 28.7221 35.0882 28.4873 34.1787 28.1353C33.7386 27.9593 33.2399 28.1353 33.0639 28.5754C32.8878 29.0154 33.0639 29.5142 33.5039 29.6902C33.5333 29.6902 33.5626 29.7195 33.5626 29.7195C34.4427 30.0422 35.3522 30.3063 36.291 30.453V31.5972C36.291 32.0666 36.6724 32.448 37.1418 32.448C37.6112 32.448 37.9926 32.0666 37.9926 31.5972V30.4236C39.5475 30.1303 40.457 29.1034 40.457 27.5779C40.457 25.5829 38.7847 24.9081 37.8166 24.5267L37.3178 24.3214C36.5257 23.9987 35.4695 23.5586 35.4695 22.9425C35.4109 22.5904 35.4109 21.945 37.1125 21.945Z" fill="#E30613"/></symbol><symbol id="icon-3" viewBox="0 0 70 70" fill="none"><path d="M35 1.46689C53.5122 1.46689 68.5331 16.5172 68.5331 35C68.5331 53.4828 53.4828 68.5331 35 68.5331C16.4879 68.5331 1.46689 53.4828 1.46689 35C1.46689 16.5172 16.4879 1.46689 35 1.46689ZM35 0C15.6664 0 0 15.6664 0 35C0 54.3336 15.6664 70 35 70C54.3336 70 70 54.3336 70 35C70 15.6664 54.3336 0 35 0Z" fill="#E30613"/>
<path d="M49.9314 17.5H34.0768C32.6596 17.5 31.5081 18.6295 31.5081 20.0197V27.55C30.1205 27.8397 28.7919 28.2741 27.4928 28.8533C26.3709 29.3457 25.308 29.867 24.2451 30.4752C22.1194 31.6627 20.6431 33.7191 20.2298 36.065L17.5136 51.4152C17.425 51.9366 17.7793 52.4289 18.3107 52.5448C18.8422 52.6317 19.3441 52.2841 19.4622 51.7628L22.1784 36.4126C22.5032 34.6169 23.6251 33.0819 25.2194 32.184C26.2233 31.6337 27.2271 31.1414 28.29 30.678C29.3233 30.2146 30.4157 29.867 31.5377 29.6064V36.0361C31.3015 35.9492 31.0653 35.8623 30.8291 35.8044C30.2976 35.6596 29.7662 35.9782 29.6186 36.4705C29.471 36.9918 29.7957 37.5132 30.2976 37.658C30.8291 37.7738 31.3015 38.0055 31.7148 38.3241C31.1243 39.2509 30.3272 40.0329 29.4119 40.6411C28.969 40.9597 28.8509 41.539 29.1462 42.0024C29.4414 42.4658 30.0615 42.5527 30.5339 42.263C31.7148 41.481 32.6891 40.4673 33.4272 39.2799L36.6454 34.3273C37.1473 33.5163 38.2397 33.2846 39.0369 33.8059C39.8635 34.2983 40.0998 35.3699 39.5683 36.1519L37.1769 39.946C36.2025 41.4521 35.7302 43.2188 35.7892 45.0145C35.8778 47.4473 34.6673 49.7354 32.6301 51.0966L32.3644 51.2704C31.331 51.9655 30.4453 52.8634 29.7662 53.935C29.4709 54.3984 29.6186 54.9776 30.091 55.2672C30.5634 55.5569 31.1539 55.4121 31.4491 54.9487C31.9805 54.1087 32.6596 53.4136 33.4863 52.8634L33.752 52.6896C35.2282 51.7048 36.3797 50.3146 37.0587 48.6927L37.2949 48.9244C38.5054 50.1119 40.4836 50.1409 41.6941 48.9534C42.0484 48.6058 42.3436 48.1714 42.4912 47.679C44.1151 48.0266 45.7389 47.0419 46.0932 45.4489C46.2113 44.8986 46.1818 44.3483 46.0046 43.827L45.9456 43.6822H49.9314C51.3486 43.6822 52.5 42.5527 52.5 41.1625V20.0197C52.4705 18.6295 51.3486 17.5 49.9314 17.5ZM41.2512 37.1367C42.2846 35.3989 41.6941 33.1688 39.9226 32.1551C38.2397 31.1704 36.0549 31.6627 34.9625 33.2557L33.4567 35.5727V20.0197C33.4567 19.7012 33.7225 19.4405 34.0472 19.4405H45.6208V41.7127H38.3873C38.5054 41.4521 38.653 41.1914 38.8007 40.9308L41.2512 37.1367ZM40.2179 47.6211C39.7455 47.9976 39.0959 47.9397 38.6826 47.5342L37.6492 46.4916C37.7378 45.9703 37.7673 45.4489 37.7378 44.9276C37.7378 44.4932 37.7673 44.0877 37.8263 43.6532H38.9188C38.9188 43.6532 38.9188 43.6822 38.9483 43.7112L40.4836 46.173C40.7788 46.6364 40.6607 47.2736 40.2179 47.6211ZM44.1151 44.4063C44.2922 44.9566 43.997 45.5358 43.4655 45.7096C43.0227 45.8544 42.4912 45.6806 42.255 45.2751C42.2255 45.2172 42.196 45.1593 42.1664 45.1014L41.2217 43.5953H43.8494L44.1151 44.4063ZM50.5219 41.1335C50.5219 41.4521 50.2562 41.7127 49.9314 41.7127H47.6285V19.4405H49.9314C50.2562 19.4405 50.5219 19.7012 50.5219 20.0197V41.1335Z" fill="#E30613"/></symbol><symbol id="icon-4" viewBox="0 0 70 70" fill="none"><path d="M35 1.46689C53.5122 1.46689 68.5331 16.5172 68.5331 35C68.5331 53.4828 53.4828 68.5625 35 68.5625C16.4879 68.5625 1.46689 53.5122 1.46689 35.0293C1.46689 16.5465 16.4879 1.46689 35 1.46689ZM35 0C15.6664 0 0 15.6664 0 35C0 54.3336 15.6664 70 35 70C54.3336 70 70 54.3336 70 35C70 15.6957 54.3336 0 35 0Z" fill="#E30613"/>
<path d="M45.5908 48.1139C44.5934 48.1139 43.6545 47.6152 43.1265 47.0578C42.7744 46.7057 42.7744 46.1189 43.1265 45.7376C43.4785 45.3855 44.0653 45.3855 44.4467 45.7376C44.4467 45.7376 44.7694 46.0603 45.2388 46.1776C45.5615 46.2656 46.0603 46.3243 46.6763 45.7376C47.2924 45.1215 47.2338 44.6227 47.1164 44.3C46.9697 43.8599 46.6763 43.5079 46.647 43.5079C46.295 43.1558 46.295 42.5691 46.647 42.1877C46.9991 41.8356 47.5858 41.8356 47.9672 42.1877C48.9354 43.1558 49.7275 45.2388 47.9672 47.0284C47.2044 47.8205 46.383 48.1139 45.5908 48.1139Z" fill="#E30613"/>
<path d="M40.3393 49.8742C39.3418 49.8742 38.403 49.3754 37.8749 48.818C37.5228 48.466 37.5228 47.8792 37.8749 47.4978C38.2269 47.1458 38.8137 47.1458 39.1951 47.4978C39.1951 47.4978 39.5178 47.8205 39.9872 47.9379C40.3099 48.0259 40.8087 48.0846 41.4248 47.4978C42.0408 46.8817 41.9822 46.383 41.8648 46.0603C41.7181 45.6202 41.4247 45.2682 41.3954 45.2682C41.0434 44.9161 41.0434 44.3293 41.3954 43.9479C41.7475 43.5959 42.3342 43.5959 42.7156 43.9479C43.6838 44.9161 44.4759 46.9991 42.7156 48.7887C41.9235 49.5808 41.102 49.8742 40.3393 49.8742Z" fill="#E30613"/>
<path d="M35.088 51.5755C34.0905 51.5755 33.181 51.1062 32.5942 50.5781L32.5649 50.5487L30.8046 48.7885C30.4526 48.4364 30.4526 47.8497 30.8046 47.4683C30.8046 47.4683 31.1274 47.1455 31.2447 46.6761C31.3327 46.3534 31.3914 45.8547 30.8046 45.2386C30.1886 44.6225 29.6898 44.6812 29.3671 44.7985C28.927 44.9452 28.575 45.2386 28.575 45.2679C28.2229 45.62 27.6362 45.62 27.2548 45.2679C26.9027 44.9159 26.9027 44.3291 27.2548 43.9477C28.2229 42.9796 30.3059 42.1875 32.0955 43.9477C33.5037 45.3559 33.2984 46.9402 32.6529 48.0257L33.8264 49.1992C33.8851 49.2579 34.2078 49.5219 34.6479 49.6393C35.176 49.786 35.616 49.6686 36.0561 49.2285C36.4962 48.7885 36.6429 48.3191 36.4668 47.7616C36.3202 47.3216 36.0268 46.9695 36.0268 46.9695C35.6747 46.5881 35.7041 46.0014 36.0854 45.6493C36.4668 45.2973 37.0536 45.3266 37.4057 45.708C38.3151 46.7055 39.0779 48.8178 37.3763 50.5194C36.6722 51.3115 35.8507 51.5755 35.088 51.5755Z" fill="#E30613"/>
<path d="M29.6311 49.8743C28.8684 49.8743 28.0469 49.5809 27.2841 48.8181C26.316 47.85 25.9933 46.6471 26.404 45.4442C26.6974 44.5935 27.2254 44.036 27.2841 43.9774C27.6362 43.6253 28.2229 43.6253 28.6043 43.9774C28.9564 44.3294 28.9564 44.9162 28.6043 45.2976C28.6043 45.2976 28.2816 45.6203 28.1642 46.0897C28.0762 46.4124 28.0176 46.9111 28.6043 47.5272C29.2204 48.1433 29.7191 48.0847 30.0419 47.9673C30.4819 47.8206 30.834 47.5272 30.834 47.4979C31.186 47.1458 31.7728 47.1458 32.1542 47.4979C32.5356 47.8499 32.5062 48.4367 32.1542 48.8181C31.5674 49.3755 30.658 49.8743 29.6311 49.8743Z" fill="#E30613"/>
<path d="M49.1112 44.5934C48.1137 44.5934 47.1749 44.0946 46.6468 43.5372C46.2948 43.1852 46.2948 42.5984 46.6468 42.217C46.9989 41.865 47.5856 41.865 47.9377 42.217C47.967 42.2464 48.2897 42.5397 48.7298 42.6864C49.0525 42.7744 49.5513 42.8331 50.1674 42.2463C50.7835 41.6302 50.7248 41.1315 50.6074 40.8088C50.4608 40.3687 50.1674 40.0167 50.138 40.0167L48.4071 38.2857L48.3778 38.2564L39.8698 29.7485H33.5915L32.0953 31.2447C30.2763 33.0636 28.6334 33.7971 27.0785 33.4743C25.6996 33.2103 24.7022 32.2128 23.734 31.2447C23.558 31.0686 23.47 30.834 23.47 30.5993C23.47 30.3645 23.558 30.1298 23.734 29.9538C23.7633 29.9245 25.553 28.1642 29.0148 24.7023C32.3887 21.3285 39.6938 22.2673 41.6594 22.59L44.8279 19.4215C45.0039 19.2455 45.2386 19.1575 45.4733 19.1575C45.708 19.1575 45.9427 19.2455 46.1187 19.4215L54.9201 28.2229C55.2721 28.5749 55.2721 29.1617 54.9201 29.5431L51.6343 32.8289L50.138 37.3469L51.4876 38.6965C51.5462 38.7551 52.1037 39.3126 52.3677 40.1634C52.7784 41.3662 52.4557 42.5691 51.4876 43.5372C50.7248 44.3 49.9033 44.5934 49.1112 44.5934ZM33.2395 27.8708H40.2805C40.5152 27.8708 40.7499 27.9588 40.926 28.1349L48.6711 35.88L49.962 32.0368C50.0207 31.8901 50.0794 31.7727 50.1967 31.6847L53.0718 28.8096L45.532 21.3285L42.6569 24.2036C42.4515 24.409 42.1288 24.5263 41.8354 24.4676C41.7474 24.4383 33.5035 22.854 30.3644 25.9932C28.1053 28.2522 26.5504 29.8071 25.729 30.5993C26.2864 31.1273 26.8731 31.5674 27.4599 31.6847C28.3694 31.8608 29.4549 31.3034 30.8044 29.9538L32.5647 28.1935C32.7407 27.9882 32.9754 27.8708 33.2395 27.8708Z" fill="#E30613"/>
<path d="M20.8589 44.5933C20.0961 44.5933 19.2747 44.2999 18.5119 43.5371C16.7516 41.7768 17.5438 39.6645 18.5119 38.6964L22.0324 35.1758C23.0006 34.2077 25.0836 33.4156 26.8732 35.1758C28.6335 36.9361 27.8413 39.0484 26.8732 40.0166C26.5211 40.3686 25.9344 40.3686 25.553 40.0166C25.2009 39.6645 25.2009 39.0778 25.553 38.6964C25.553 38.6964 25.8757 38.3737 25.993 37.9043C26.0811 37.5815 26.1397 37.0828 25.553 36.4667C24.9369 35.8506 24.4381 35.9093 24.1154 36.0266C23.6754 36.1733 23.3233 36.4667 23.3233 36.496L19.8028 40.0166C19.8028 40.0166 19.4801 40.3393 19.3627 40.8087C19.2747 41.1314 19.216 41.6301 19.8028 42.2462C20.4189 42.8623 20.9176 42.8037 21.2403 42.6863C21.6804 42.5396 22.0324 42.2463 22.0324 42.2169C22.3845 41.8649 22.9713 41.8649 23.3526 42.2169C23.734 42.569 23.7047 43.1557 23.3526 43.5371C22.7659 44.0945 21.8564 44.5933 20.8589 44.5933Z" fill="#E30613"/>
<path d="M24.3504 48.1134C23.4996 48.1134 22.6781 47.7614 22.0034 47.0573C21.0352 46.0891 20.7125 44.8863 21.1232 43.6834C21.4166 42.8326 21.9447 42.2752 22.0034 42.2165L25.5239 38.696C25.6412 38.5786 26.6094 37.6398 28.0176 37.6398C28.8684 37.6398 29.6899 37.9919 30.3646 38.696C32.1249 40.4563 31.3328 42.5686 30.3646 43.5367L26.8441 47.0573C26.7267 47.1746 25.7586 48.1134 24.3504 48.1134ZM23.3236 43.5367C23.3236 43.5367 23.0008 43.8594 22.8835 44.3288C22.7955 44.6516 22.7368 45.1503 23.3236 45.7664C23.6756 46.1185 23.9983 46.2652 24.3504 46.2652C24.9665 46.2652 25.5239 45.7664 25.5239 45.7664L29.0444 42.2459C29.0444 42.2459 29.3671 41.9232 29.4845 41.4538C29.5725 41.131 29.6312 40.6323 29.0444 40.0162C28.6924 39.6642 28.3697 39.5174 28.0176 39.5174C27.4015 39.5174 26.8441 40.0162 26.8441 40.0162L23.3236 43.5367Z" fill="#E30613"/>
<path d="M38.4912 49.0821C38.2565 49.0821 38.0218 48.9941 37.8457 48.8181L34.3252 45.2976C33.9731 44.9455 33.9731 44.3587 34.3252 43.9774C34.6773 43.6253 35.264 43.6253 35.6454 43.9774L39.1659 47.4979C39.518 47.8499 39.518 48.4367 39.1659 48.8181C38.9899 48.9941 38.7552 49.0821 38.4912 49.0821Z" fill="#E30613"/>
<path d="M43.7719 47.3219C43.5372 47.3219 43.3025 47.2339 43.1265 47.0579L37.8457 41.7771C37.4937 41.425 37.4937 40.8382 37.8457 40.4569C38.1978 40.1048 38.7845 40.1048 39.1659 40.4569L44.4467 45.7377C44.7988 46.0897 44.7988 46.6765 44.4467 47.0579C44.2707 47.2339 44.0066 47.3219 43.7719 47.3219Z" fill="#E30613"/>
<path d="M47.2925 43.8014C47.0577 43.8014 46.823 43.7134 46.647 43.5373L41.3662 38.2565C41.0142 37.9045 41.0142 37.3177 41.3662 36.9363C41.7183 36.5843 42.305 36.5843 42.6864 36.9363L47.9672 42.2172C48.3193 42.5692 48.3193 43.156 47.9672 43.5373C47.7912 43.7134 47.5272 43.8014 47.2925 43.8014Z" fill="#E30613"/>
<path d="M20.9177 38.5204C20.5363 38.5204 20.155 38.2857 20.0376 37.875L18.336 32.7995L14.9622 29.4257C14.7861 29.2497 14.6981 29.0149 14.6981 28.7802C14.6981 28.5455 14.7861 28.3108 14.9622 28.1348L23.7635 19.3335C24.1156 18.9814 24.7023 18.9814 25.0837 19.3335L28.2522 22.502C29.367 22.3259 32.1835 21.9445 35.0292 22.2379C35.528 22.2966 35.9093 22.7367 35.8507 23.2647C35.792 23.7635 35.3519 24.1449 34.8239 24.0862C31.5087 23.7341 28.1348 24.4089 28.1055 24.4089C27.8121 24.4676 27.4894 24.3796 27.2547 24.1449L24.3796 21.2698L16.8691 28.7509L19.7442 31.626C19.8322 31.714 19.9202 31.8607 19.9789 31.9781L21.7392 37.2589C21.9152 37.7576 21.6512 38.2564 21.1524 38.4324C21.0938 38.5204 21.0057 38.5204 20.9177 38.5204Z" fill="#E30613"/></symbol><symbol id="icon-5" viewBox="0 0 70 70" fill="none"><path d="M35 1.46689C53.5121 1.46689 68.5331 16.5172 68.5331 35C68.5331 53.5122 53.4828 68.5331 35 68.5331C16.4878 68.5331 1.46689 53.4828 1.46689 35C1.46689 16.5172 16.5172 1.46689 35 1.46689ZM35 0C15.6664 0 0 15.6664 0 35C0 54.3336 15.6664 70 35 70C54.3336 70 70 54.3336 70 35C70.0293 15.6664 54.3629 0 35 0Z" fill="#E30613"/>
<path d="M48.6419 38.6962H40.0753V40.8966H48.6419V38.6962Z" fill="#E30613"/>
<path d="M50.3142 34.618H40.0753V36.8183H50.3142V34.618Z" fill="#E30613"/>
<path d="M44.3586 42.6272H40.0753V44.8276H44.3586V42.6272Z" fill="#E30613"/>
<path d="M41.5715 25.4647C42.3979 25.4647 43.0678 24.7948 43.0678 23.9685C43.0678 23.1421 42.3979 22.4722 41.5715 22.4722C40.7452 22.4722 40.0753 23.1421 40.0753 23.9685C40.0753 24.7948 40.7452 25.4647 41.5715 25.4647Z" fill="#E30613"/>
<path d="M46.207 25.4647C47.0334 25.4647 47.7033 24.7948 47.7033 23.9685C47.7033 23.1421 47.0334 22.4722 46.207 22.4722C45.3807 22.4722 44.7108 23.1421 44.7108 23.9685C44.7108 24.7948 45.3807 25.4647 46.207 25.4647Z" fill="#E30613"/>
<path d="M51.1063 25.4647C51.9327 25.4647 52.6026 24.7948 52.6026 23.9685C52.6026 23.1421 51.9327 22.4722 51.1063 22.4722C50.28 22.4722 49.6101 23.1421 49.6101 23.9685C49.6101 24.7948 50.28 25.4647 51.1063 25.4647Z" fill="#E30613"/>
<path d="M52.1919 20.3601C53.7762 20.3601 55.0377 21.6509 55.0377 23.2058V47.0575C55.0377 48.6417 53.7468 49.9032 52.1919 49.9032H17.8667C16.2825 49.9032 15.021 48.6124 15.021 47.0575V23.2058C15.021 21.6216 16.3118 20.3601 17.8667 20.3601H52.1919ZM52.1919 18.8932H17.8667C15.4904 18.8932 13.5541 20.8295 13.5541 23.2058V47.0575C13.5541 49.4338 15.4904 51.3701 17.8667 51.3701H52.1919C54.5683 51.3701 56.5046 49.4338 56.5046 47.0575V23.2058C56.5046 20.8295 54.5683 18.8932 52.1919 18.8932Z" fill="#E30613"/>
<path d="M56.5045 26.9023H13.5247V28.5745H56.5045V26.9023Z" fill="#E30613"/>
<path d="M27.5188 46.6468C31.4236 46.6468 34.5892 43.4813 34.5892 39.5764C34.5892 35.6715 31.4236 32.506 27.5188 32.506C23.6139 32.506 20.4484 35.6715 20.4484 39.5764C20.4484 43.4813 23.6139 46.6468 27.5188 46.6468Z" fill="#E30613"/></symbol><symbol id="icon-6" viewBox="0 0 70 70" fill="none"><path d="M35 1.46689C53.5121 1.46689 68.5331 16.5172 68.5331 35C68.5331 53.5121 53.4828 68.5331 35 68.5331C16.4878 68.5331 1.46689 53.4828 1.46689 35C1.46689 16.5172 16.5172 1.46689 35 1.46689ZM35 0C15.6664 0 0 15.6664 0 35C0 54.3336 15.6664 70 35 70C54.3336 70 70 54.3336 70 35C70.0293 15.6664 54.3336 0 35 0Z" fill="#E30613"/>
<path d="M51.7417 35.4571C52.15 35.3987 52.5583 35.6612 52.6167 36.0695L55.2708 51.0612C55.3583 51.4696 55.0667 51.8779 54.6584 51.9362L49.3792 52.8696C48.9708 52.9279 48.5625 52.6654 48.5042 52.2571L45.85 37.2654C45.7625 36.8571 46.0542 36.4488 46.4625 36.3904L51.7417 35.4571ZM51.2458 37.0904L47.4542 37.7613L49.8458 51.2653L53.6375 50.5946L51.2458 37.0904Z" fill="#E30613"/>
<path fill-rule="evenodd" clip-rule="evenodd" d="M52.2666 38.4611L52.5291 39.9486L47.25 40.8819L46.9875 39.3944L52.2666 38.4611Z" fill="#E30613"/>
<path d="M28.5249 35.4571C28.1166 35.3987 27.7083 35.6612 27.6499 36.0695L24.9958 51.0612C24.9083 51.4696 25.1999 51.8779 25.6083 51.9362L30.8874 52.8696C31.2958 52.9279 31.7041 52.6654 31.7624 52.2571L34.4166 37.2654C34.4749 36.8571 34.2124 36.4488 33.8041 36.3904L28.5249 35.4571ZM29.0208 37.0904L32.8124 37.7613L30.4208 51.2653L26.6291 50.5946L29.0208 37.0904Z" fill="#E30613"/>
<path fill-rule="evenodd" clip-rule="evenodd" d="M28 38.4611L27.7375 39.9486L33.0167 40.8819L33.2792 39.3944L28 38.4611Z" fill="#E30613"/>
<path d="M40.1624 31.2861C36.6333 31.2569 33.3958 33.2985 31.8791 36.5068C31.7041 36.886 31.8499 37.3235 32.2291 37.5277C32.6083 37.7319 33.0458 37.5569 33.2499 37.1777C34.5041 34.4944 37.1874 32.8027 40.1624 32.8319C43.1083 32.8611 45.7916 34.5819 47.0166 37.2652C47.1916 37.6444 47.6291 37.8194 48.0083 37.6444C48.3874 37.4694 48.5624 37.0319 48.3874 36.6527C46.9291 33.3861 43.7208 31.3152 40.1624 31.2861Z" fill="#E30613"/>
<path d="M41.6499 12.3279C41.2416 12.3279 40.8916 12.6778 40.8916 13.0862V16.1195C40.8916 16.5278 41.2416 16.8779 41.6499 16.8779C42.2916 16.8779 42.7874 17.3737 42.7874 18.0153C42.7874 18.657 42.2916 19.1529 41.6499 19.1529C41.2416 19.1529 40.8916 19.5028 40.8916 19.9111V22.1862C40.8916 22.5946 41.2416 22.9445 41.6499 22.9445C42.2916 22.9445 42.7874 23.4404 42.7874 24.082C42.7874 24.7237 42.2916 25.2195 41.6499 25.2195H40.1332C38.0624 25.2195 36.3416 26.9112 36.3416 29.0112C36.3416 31.0821 38.0332 32.8028 40.1332 32.8028C40.5416 32.8028 40.8916 32.482 40.8916 32.0445C40.8916 31.6362 40.5707 31.2862 40.1332 31.2862C40.1332 31.2862 40.1332 31.2862 40.1041 31.2862C38.8499 31.2862 37.8291 30.2654 37.8291 29.0112C37.8291 27.7571 38.8499 26.7362 40.1041 26.7362H41.6207C43.0791 26.7362 44.2749 25.5404 44.2749 24.082C44.2749 22.9154 43.4291 22.0987 42.3791 21.7487V20.3487C43.4291 19.9987 44.2749 19.182 44.2749 18.0153C44.2749 16.8487 43.4291 16.032 42.3791 15.682V13.8445H44.3916C45.4999 13.8445 46.4332 14.6321 46.6374 15.7112L50.3416 36.332C50.4291 36.7403 50.8082 37.0029 51.2166 36.9446C51.6249 36.8571 51.8874 36.4778 51.8291 36.0695L48.1249 15.4486C47.8041 13.6403 46.2291 12.3279 44.3916 12.3279H41.6499V12.3279Z" fill="#E30613"/>
<path d="M40.8917 29.011C40.8917 29.4194 40.5417 29.7693 40.1333 29.7693C39.725 29.7693 39.375 29.4194 39.375 29.011C39.375 28.6027 39.725 28.2527 40.1333 28.2527C40.5417 28.2527 40.8917 28.5735 40.8917 29.011Z" fill="#E30613"/>
<path fill-rule="evenodd" clip-rule="evenodd" d="M35.8458 12.3279C34.0083 12.3279 32.4333 13.6403 32.1125 15.4486L28.4083 36.0695L29.8958 36.332L33.6 15.7112C33.8041 14.6321 34.7375 13.8445 35.8458 13.8445H37.8583V15.682C36.8083 16.032 35.9625 16.8487 35.9625 18.0153C35.9625 19.182 36.8083 19.9987 37.8583 20.3487V21.7487C36.8083 22.0987 35.9625 22.9154 35.9625 24.082C35.9625 25.5404 37.1583 26.7362 38.6166 26.7362H40.1333H40.8916V25.2195H40.1333H38.6166C37.975 25.2195 37.4791 24.7237 37.4791 24.082C37.4791 23.4404 37.975 22.9445 38.6166 22.9445H39.375V19.1529H38.6166C37.975 19.1529 37.4791 18.657 37.4791 18.0153C37.4791 17.3737 37.975 16.8779 38.6166 16.8779H39.375V12.3279H35.8458Z" fill="#E30613"/>
<path fill-rule="evenodd" clip-rule="evenodd" d="M9.0708 42.6321V44.1488H15.1375C17.2375 44.1488 18.9291 45.8404 18.9291 47.9404V53.2488C18.9291 56.1655 21.3208 58.5571 24.2375 58.5571H24.2666H24.2958C27.125 58.4404 29.3125 56.0488 29.1958 53.2196V51.7321H27.6791V53.2779V53.3071C27.7666 55.2904 26.25 56.9529 24.2666 57.0404C22.1666 57.0404 20.5041 55.3488 20.5041 53.2488V47.9404C20.5041 45.0238 18.1125 42.6321 15.1958 42.6321H9.0708Z" fill="#E30613"/></symbol><symbol id="icon-7" viewBox="0 0 70 70" fill="none"><path d="M35 1.46689C53.5121 1.46689 68.5331 16.5172 68.5331 35C68.5331 53.5122 53.4828 68.5331 35 68.5331C16.4878 68.5331 1.46689 53.4828 1.46689 35C1.46689 16.5172 16.5172 1.46689 35 1.46689ZM35 0C15.6664 0 0 15.6664 0 35C0 54.3336 15.6664 70 35 70C54.3336 70 70 54.3336 70 35C70.0293 15.6957 54.3336 0 35 0Z" fill="#E30613"/>
<path d="M47.4391 52.1625H21.0351V20.6537H43.7719V18.4827H20.5657C19.6269 18.4827 18.8641 19.2455 18.8641 20.1843V52.6319C18.8641 53.6 19.6269 54.3335 20.5657 54.3335H47.9379C48.8767 54.3335 49.6395 53.5707 49.6395 52.6319V39.4299C48.8767 39.4299 48.0846 39.1952 47.4391 38.6964V52.1625Z" fill="#E30613"/>
<path d="M53.5414 17.4266C53.5414 16.9866 53.3654 16.5172 53.0133 16.1944C52.6319 15.8717 52.2506 15.6664 51.7811 15.6664H47.4978C47.0578 15.6664 46.5883 15.8424 46.2656 16.1944C45.9429 16.5172 45.7375 16.9572 45.7375 17.4266V33.2984C45.7375 33.7091 45.9136 34.1492 46.1776 34.4426L48.3486 36.8776C48.6713 37.2297 49.1701 37.4937 49.6395 37.4937C50.0795 37.4937 50.5489 37.2883 50.8717 36.9656C50.901 36.9363 50.901 36.9363 50.9597 36.8776L53.1307 34.4426C53.4241 34.1198 53.5708 33.7091 53.5708 33.2984L53.5414 17.4266ZM51.3411 17.896V19.803H47.9086V17.896H51.3411ZM51.3411 21.9447V29.8952H47.9086V21.9447H51.3411ZM49.6395 35.0587L47.9379 33.093V32.0662H51.3704V33.1224L49.6395 35.0587Z" fill="#E30613"/>
<path d="M42.0998 25.4945H31.6848C31.0688 25.4945 30.5994 25.9933 30.5994 26.58C30.5994 27.1961 31.0981 27.6655 31.6848 27.6655H42.0998C42.7159 27.6655 43.1853 27.1668 43.1853 26.58C43.2146 25.9933 42.7159 25.4945 42.0998 25.4945Z" fill="#E30613"/>
<path d="M42.0998 32.0663H31.6848C31.0688 32.0663 30.5994 32.565 30.5994 33.1518C30.5994 33.7679 31.0981 34.2373 31.6848 34.2373H42.0998C42.7159 34.2373 43.1853 33.7385 43.1853 33.1518C43.2146 32.5357 42.7159 32.0663 42.0998 32.0663Z" fill="#E30613"/>
<path d="M42.0998 38.6085H31.6848C31.0688 38.6085 30.5994 39.1072 30.5994 39.694C30.5994 40.2808 31.0981 40.7795 31.6848 40.7795H42.0998C42.7159 40.7795 43.1853 40.2808 43.1853 39.694C43.1853 39.1072 42.7159 38.6085 42.0998 38.6085Z" fill="#E30613"/>
<path d="M42.0998 45.1798H31.6848C31.0688 45.1798 30.5994 45.6785 30.5994 46.2653C30.5994 46.8814 31.0981 47.3508 31.6848 47.3508H42.0998C42.7159 47.3508 43.1853 46.852 43.1853 46.2653C43.2146 45.6492 42.7159 45.1798 42.0998 45.1798Z" fill="#E30613"/>
<path d="M27.3135 25.4945H26.3747C25.7586 25.4945 25.2892 25.9933 25.2892 26.58C25.2892 27.1961 25.788 27.6655 26.3747 27.6655H27.3135C27.9296 27.6655 28.399 27.1668 28.399 26.58C28.4284 25.9933 27.9296 25.4945 27.3135 25.4945Z" fill="#E30613"/>
<path d="M27.3135 32.0663H26.3747C25.7586 32.0663 25.2892 32.565 25.2892 33.1518C25.2892 33.7679 25.788 34.2373 26.3747 34.2373H27.3135C27.9296 34.2373 28.399 33.7385 28.399 33.1518C28.4284 32.5357 27.9296 32.0663 27.3135 32.0663Z" fill="#E30613"/>
<path d="M27.3135 38.6085H26.3747C25.7586 38.6085 25.2892 39.1072 25.2892 39.694C25.2892 40.2808 25.788 40.7795 26.3747 40.7795H27.3135C27.9296 40.7795 28.399 40.2808 28.399 39.694C28.399 39.1072 27.9296 38.6085 27.3135 38.6085Z" fill="#E30613"/>
<path d="M27.3135 45.1798H26.3747C25.7586 45.1798 25.2892 45.6785 25.2892 46.2653C25.2892 46.8814 25.788 47.3508 26.3747 47.3508H27.3135C27.9296 47.3508 28.399 46.852 28.399 46.2653C28.4284 45.6492 27.9296 45.1798 27.3135 45.1798Z" fill="#E30613"/></symbol><symbol id="icon-8" viewBox="0 0 70 70" fill="none"><path d="M35 1.46689C53.5121 1.46689 68.5331 16.5172 68.5331 35C68.5331 53.4828 53.4828 68.5331 35 68.5331C16.4878 68.5331 1.46689 53.4828 1.46689 35C1.46689 16.5172 16.5172 1.46689 35 1.46689ZM35 0C15.6664 0 0 15.6664 0 35C0 54.3336 15.6664 70 35 70C54.3336 70 70 54.3336 70 35C70.0293 15.6664 54.3336 0 35 0Z" fill="#E30613"/>
<path d="M39.8995 32.5359H20.7126C20.2431 32.5359 19.8618 32.9173 19.8618 33.3867C19.8618 33.8561 20.2431 34.2375 20.7126 34.2375H39.8995C40.3689 34.2375 40.7503 33.8561 40.7503 33.3867C40.7503 32.9173 40.3689 32.5359 39.8995 32.5359Z" fill="#E30613"/>
<path d="M39.8995 37.9341H20.7126C20.2431 37.9341 19.8618 38.3155 19.8618 38.7849C19.8618 39.2543 20.2431 39.6357 20.7126 39.6357H39.8995C40.3689 39.6357 40.7503 39.2543 40.7503 38.7849C40.7503 38.3155 40.3689 37.9341 39.8995 37.9341Z" fill="#E30613"/>
<path d="M39.8995 43.3616H20.7126C20.2431 43.3616 19.8618 43.743 19.8618 44.2124C19.8618 44.6818 20.2431 45.0632 20.7126 45.0632H39.8995C40.3689 45.0632 40.7503 44.6818 40.7503 44.2124C40.7503 43.743 40.3689 43.3616 39.8995 43.3616Z" fill="#E30613"/>
<path d="M41.8358 14.1411C33.3572 14.1411 26.4921 19.5979 26.4921 26.287C26.4921 26.375 26.5214 26.463 26.5214 26.5803H17.6321C16.0772 26.5803 14.8157 27.8419 14.8157 29.3968V48.2609C14.8157 49.8158 16.0772 51.0774 17.6321 51.0774H18.6002L24.0864 56.1235C24.2331 56.2702 24.4678 56.3582 24.6731 56.3582C24.8198 56.3582 24.9665 56.3288 25.0839 56.2408C25.4066 56.0648 25.5826 55.7128 25.5239 55.3314L24.7318 51.048H43.0679C44.6228 51.048 45.8844 49.7865 45.8844 48.2316V37.9927C46.5298 37.846 47.1752 37.6993 47.7913 37.494C48.7595 38.5501 51.2239 40.9852 53.7176 40.9852C54.0109 40.9852 54.275 40.8385 54.4217 40.6038C54.5684 40.3691 54.5977 40.0464 54.4803 39.7823C53.8056 38.3448 52.7494 35.0003 53.7469 34.0321C56.0059 31.8611 57.2675 29.1327 57.2675 26.3163C57.1794 19.5686 50.3144 14.1411 41.8358 14.1411ZM44.1241 48.2316C44.1241 48.8477 43.6254 49.3465 43.0093 49.3465H23.6463C23.3823 49.3465 23.1476 49.4638 23.0009 49.6398C22.8542 49.8452 22.7662 50.0799 22.8249 50.344L23.3236 53.131L19.451 49.5811C19.3043 49.4344 19.099 49.3465 18.8643 49.3465H17.5734C16.9573 49.3465 16.4586 48.8477 16.4586 48.2316V29.3674C16.4586 28.7513 16.9573 28.2526 17.5734 28.2526H42.9799C43.596 28.2526 44.0948 28.7513 44.0948 29.3674V48.2316H44.1241ZM52.4854 32.7999C51.0185 34.2668 51.6639 37.1126 52.2507 38.9315C50.8718 38.3155 49.5223 36.9659 48.8182 36.2031C48.8182 36.1738 48.7888 36.1151 48.7595 36.0858C48.5541 35.7044 48.114 35.5284 47.7033 35.675C47.0579 35.9098 46.4125 36.0858 45.767 36.2325V29.3381C45.767 27.7832 44.5055 26.5216 42.9506 26.5216H28.135C28.135 26.4336 28.1057 26.3456 28.1057 26.2283C28.1057 20.4781 34.2373 15.784 41.7771 15.784C49.3169 15.784 55.4485 20.4781 55.4485 26.2283C55.5072 28.6633 54.451 30.893 52.4854 32.7999Z" fill="#E30613"/></symbol><symbol id="icon-9" viewBox="0 0 70 70" fill="none"><path d="M35 1.46689C53.5121 1.46689 68.5331 16.5172 68.5331 35C68.5331 53.4828 53.4828 68.5331 35 68.5331C16.4878 68.5331 1.46689 53.4828 1.46689 35C1.46689 16.5172 16.5172 1.46689 35 1.46689ZM35 0C15.6664 0 0 15.6664 0 35C0 54.3336 15.6664 70 35 70C54.3336 70 70 54.3336 70 35C70.0293 15.6664 54.3336 0 35 0Z" fill="#E30613"/>
<path d="M34.9413 32.9754C35.088 33.1221 35.264 33.2394 35.4694 33.2394C35.6747 33.2394 35.9094 33.1807 36.0561 33.034L50.2263 21.0642C50.373 20.9175 50.4903 20.7415 50.4903 20.5361C50.4903 20.3308 50.4316 20.0961 50.2849 19.9494C46.4124 15.4314 41.0142 13.0844 35.4694 13.0844C31.01 13.0844 26.5507 14.5806 22.9128 17.6904C22.5901 17.9544 22.5314 18.4825 22.7954 18.8052L34.9413 32.9754ZM24.6437 18.3945C26.9027 16.6636 29.4258 15.5487 32.0368 15.0206L26.0813 20.0667L24.6437 18.3945ZM38.6085 14.962C39.3126 15.0793 40.0461 15.2847 40.7502 15.49L29.9539 24.6141L29.1031 23.5872L38.3151 15.6954C38.6085 15.49 38.6672 15.226 38.6085 14.962ZM32.917 28.076L44.9455 17.8957C45.0628 17.7784 45.1508 17.6317 45.2095 17.4557C45.6496 17.7197 46.0603 18.0424 46.5004 18.3651L33.8264 29.1028L32.917 28.076ZM31.8902 26.8437L30.9807 25.8169L42.3637 16.2235C42.4224 16.1648 42.4811 16.1061 42.5104 16.0768C42.9798 16.2821 43.4199 16.5168 43.9186 16.7222L31.8902 26.8437ZM48.5834 20.3601L35.6454 31.3031L34.8533 30.3349L47.6152 19.5387L47.6739 19.48C47.9966 19.7147 48.3193 20.0374 48.5834 20.3601ZM36.9949 14.7273L28.0469 22.3551L27.1961 21.3283L34.0611 15.49C34.2665 15.2847 34.3839 15.0206 34.3252 14.7273C34.7653 14.6686 35.1173 14.6686 35.5574 14.6686C36.0268 14.6686 36.4962 14.6686 36.9949 14.7273Z" fill="#E30613"/>
<path d="M34.4718 35.3225L21.3285 19.7735C21.0644 19.4508 20.5364 19.3921 20.2136 19.6561C15.2849 23.8514 12.7618 29.807 12.7618 35.7919C12.7618 40.6327 14.4341 45.5028 17.8079 49.4634C22.0032 54.3921 27.9588 56.9151 33.9437 56.9151C38.7845 56.9151 43.6545 55.2429 47.6151 51.869C47.7618 51.7224 47.8792 51.5463 47.8792 51.341C47.8792 51.1356 47.8205 50.9009 47.6738 50.7542L34.4718 35.3225ZM18.9521 48.4659L18.3654 48.9939L18.9521 48.4659C15.8423 44.7693 14.2874 40.31 14.2874 35.7919C14.2874 30.4818 16.4291 25.2303 20.6244 21.4164L33.2983 36.32L45.9429 51.2236C42.393 54.0107 38.1684 55.3602 33.9144 55.3602C28.3402 55.3896 22.8247 53.0426 18.9521 48.4659Z" fill="#E30613"/>
<path d="M52.6025 22.5602C52.4558 22.4135 52.2798 22.2961 52.0744 22.2961C51.8691 22.2961 51.6344 22.3548 51.4877 22.5015L37.3175 34.53C37.1708 34.6767 37.0535 34.8527 37.0535 35.0581C37.0535 35.2634 37.1121 35.4981 37.2588 35.6448L49.2873 49.815C49.434 49.9617 49.61 50.079 49.8154 50.079C50.0208 50.079 50.2555 50.0203 50.4022 49.8737C54.9202 46.0011 57.2672 40.6029 57.2672 35.0581C57.2085 30.6574 55.7123 26.1981 52.6025 22.5602ZM49.9034 48.1427L38.9018 35.2048L51.869 24.2031C54.3921 27.4302 55.5656 31.2735 55.5656 35.0874C55.595 39.9575 53.6587 44.6515 49.9034 48.1427Z" fill="#E30613"/></symbol></svg>