<svg xmlns="http://www.w3.org/2000/svg" style="display:none"><symbol id="icon-block-1" viewBox="0 0 42 42" fill="none"><path d="M16.3996 24.3462C16.2023 24.1431 15.8835 24.1431 15.6862 24.3462L9.97923 30.2228C9.78199 30.4259 9.78199 30.7542 9.97923 30.9572C10.0776 31.0585 10.2067 31.1094 10.3359 31.1094C10.465 31.1094 10.5942 31.0585 10.6925 30.9572L16.3996 25.0806C16.5968 24.8775 16.5968 24.5487 16.3996 24.3462Z" fill="#27AE60"/>
<path d="M17.1128 25.8152L11.4057 31.6918C11.2085 31.8949 11.2085 32.2232 11.4057 32.4262C11.5041 32.5275 11.6333 32.5784 11.7624 32.5784C11.8915 32.5784 12.0207 32.5275 12.1191 32.4262L17.8261 26.5496C18.0233 26.3465 18.0233 26.0182 17.8261 25.8152C17.6288 25.6121 17.31 25.6121 17.1128 25.8152Z" fill="#27AE60"/>
<path d="M26.3885 23.238L23.7158 20.4861L29.8401 14.1811H31.0578C31.192 14.1811 31.3202 14.1265 31.4145 14.0289L33.555 11.825C33.6498 11.7274 33.7028 11.5955 33.7028 11.4578C33.7028 11.3202 33.6498 11.1877 33.555 11.0906L30.7012 8.15232C30.5039 7.94923 30.1851 7.94923 29.9879 8.15232L27.8474 10.3556C27.7526 10.4533 27.6996 10.5852 27.6996 10.7229V11.9767L21.5759 18.2823C20.9035 17.5894 19.4602 16.1034 18.9038 15.5305C19.5439 13.4965 19.0299 11.2527 17.5498 9.72975C16.1373 8.2749 14.0604 7.71549 12.1298 8.2697C11.9573 8.31956 11.8231 8.4598 11.7777 8.63796C11.7323 8.81612 11.7822 9.00674 11.9088 9.13763L13.8021 11.087L13.2144 13.3453L11.02 13.951L9.1272 12.0022C9.00058 11.8713 8.81595 11.8198 8.64291 11.8671C8.46938 11.9139 8.33317 12.052 8.28525 12.2302C7.74648 14.2169 8.28979 16.3548 9.70229 17.8102C11.1819 19.3336 13.3612 19.8623 15.3362 19.2037L18.0083 21.9555L17.346 22.6375C16.9439 22.4396 16.502 22.3316 16.0429 22.3316C15.2343 22.3316 14.4745 22.6557 13.903 23.2447L8.90826 28.3858C7.72882 29.6012 7.72882 31.5781 8.90826 32.7935L9.62208 33.5279C10.1936 34.1169 10.9539 34.441 11.7625 34.441C12.5712 34.441 13.3309 34.1169 13.9025 33.5279L18.8962 28.3858C19.4682 27.7978 19.783 27.0151 19.783 26.183C19.783 25.7103 19.6781 25.2553 19.4859 24.8414L20.1483 24.1594L22.8209 26.9112C22.1808 28.9452 22.6953 31.1885 24.1749 32.7119C25.2272 33.7954 26.6468 34.3823 28.1007 34.3823C28.5991 34.3823 29.102 34.3133 29.5949 34.1715C29.7679 34.1216 29.9016 33.9819 29.947 33.8032C29.9929 33.6245 29.9425 33.4344 29.8159 33.3041L27.9226 31.3547L28.5103 29.0958L30.7042 28.4907L32.5975 30.4401C32.7241 30.5709 32.9087 30.6229 33.0823 30.5751C33.2558 30.5284 33.392 30.3907 33.4399 30.2126C33.9782 28.2258 33.4349 26.0874 32.0219 24.6326C30.5428 23.1081 28.363 22.5783 26.3885 23.238ZM15.824 18.2366C15.6827 18.0906 15.4693 18.0444 15.2832 18.1202C13.6028 18.7986 11.6914 18.3888 10.4156 17.0757C9.47932 16.1112 9.00966 14.7794 9.09996 13.4435L10.5125 14.8978C10.6396 15.0293 10.8262 15.0807 10.9998 15.0324L13.7567 14.2714C13.9307 14.2237 14.0669 14.0834 14.1133 13.9042L14.8519 11.0667C14.8988 10.8875 14.8489 10.6964 14.7212 10.565L13.3082 9.10958C14.6037 9.01401 15.8997 9.49966 16.8364 10.4642C18.1117 11.7767 18.5103 13.7442 17.8555 15.4666C17.7263 15.7876 17.7263 15.7876 19.5913 17.7078L20.8626 19.0167L18.7221 21.2206L15.824 18.2366ZM28.5607 12.5595C28.6556 12.4618 28.7085 12.3299 28.7085 12.1923V10.9384L30.3445 9.2545L32.485 11.4578L30.849 13.1423H29.6312C29.497 13.1423 29.3689 13.1968 29.2746 13.2944L18.8972 23.9792L18.1834 23.2447L28.5607 12.5595ZM18.1829 27.6514L13.1887 32.7935C12.4269 33.5788 11.0976 33.5788 10.3354 32.7935L9.62158 32.059C8.83461 31.2488 8.83461 29.93 9.62158 29.1202L14.6163 23.9792C14.9972 23.5865 15.5036 23.3704 16.0429 23.3704C16.5822 23.3704 17.0887 23.5865 17.4696 23.9792L18.1829 24.7136C18.5642 25.1063 18.7741 25.6283 18.7741 26.183C18.7741 26.7377 18.5642 27.2592 18.1829 27.6514ZM32.6247 28.9987L31.2117 27.5438C31.0846 27.4124 30.8999 27.36 30.7244 27.4093L27.968 28.1697C27.794 28.218 27.6582 28.3577 27.6113 28.5369L26.8728 31.375C26.8259 31.5542 26.8758 31.7453 27.0035 31.8767L28.417 33.3321C27.117 33.4256 25.825 32.942 24.8882 31.9775C23.6134 30.665 23.2149 28.6974 23.8732 26.9657C23.9464 26.7736 23.902 26.5554 23.7597 26.4095L20.8616 23.4255L23.0025 21.2206L25.9007 24.2046C26.0429 24.351 26.2543 24.3973 26.4415 24.3209C28.1229 23.6431 30.0343 24.0529 31.3086 25.3665C32.2454 26.3305 32.715 27.6623 32.6247 28.9987Z" fill="#27AE60"/>
<circle cx="21" cy="21" r="20" stroke="#27AE60" stroke-width="2"/></symbol><symbol id="icon-block-2" viewBox="0 0 42 42" fill="none"><circle cx="21" cy="21" r="20" stroke="#27AE60" stroke-width="2"/>
<path d="M34.2937 15.1692L32.7578 16.056L32.3127 15.2851L30.7767 16.1719L30.4429 15.5937L27.872 15.2793L26.5921 16.0182L24.1442 11.7782C23.7761 11.1407 22.9597 10.9202 22.3246 11.2869L21.9406 11.5086L21.718 11.1232C21.35 10.4856 20.5336 10.2652 19.8984 10.6319L9.14674 16.8394C8.64678 17.1281 8.41111 17.6953 8.51051 18.2346L5.36793 20.049L6.70318 22.3617L9.7751 20.5881L10.7062 22.2009C10.3525 22.6178 10.2752 23.2278 10.5649 23.7297L12.1227 26.4279L9.81876 27.758L13.3794 33.9253L15.6834 32.5951L15.9059 32.9805C16.274 33.6181 17.0904 33.8385 17.7255 33.4718L29.2452 26.8209C29.7451 26.5323 29.9808 25.965 29.8814 25.4257L30.3361 25.1632C30.836 24.8746 31.0717 24.3073 30.9723 23.768L32.3232 22.9881L33.336 20.6046L33.0021 20.0264L34.5381 19.1396L34.093 18.3687L35.629 17.4819L34.2937 15.1692ZM20.9501 11.5666L21.1726 11.952L19.6366 12.8388L21.417 15.9224L12.9692 20.7998L10.7438 16.9452L20.3435 11.4028C20.5551 11.2807 20.8272 11.3538 20.9501 11.5666ZM9.59182 17.6103L9.97581 17.3886L12.2012 21.2431L11.4332 21.6865L9.43037 18.2175C9.30753 18.0047 9.38024 17.7325 9.59182 17.6103ZM7.02608 21.1474L6.581 20.3765L8.88493 19.0463L9.33002 19.8172L7.02608 21.1474ZM12.5678 27.1988L13.1366 28.184C12.8331 28.1824 12.526 28.2508 12.2449 28.4131C11.9638 28.5753 11.751 28.8071 11.6006 29.0708L11.0318 28.0855L12.5678 27.1988ZM13.903 29.5115C14.1485 29.9366 14.0037 30.4812 13.5801 30.7258C13.1566 30.9703 12.6125 30.8234 12.3671 30.3983C12.1216 29.9731 12.2664 29.4285 12.69 29.184C13.1135 28.9394 13.6576 29.0863 13.903 29.5115ZM13.7023 32.711L13.1335 31.7258C13.437 31.7273 13.7441 31.659 14.0252 31.4967C14.3063 31.3344 14.5191 31.1026 14.6695 30.839L15.2383 31.8242L13.7023 32.711ZM28.9615 25.4429C29.0844 25.6556 29.0117 25.9279 28.8001 26.05L19.2004 31.5924L14.0819 22.727L13.3139 23.1704L18.4324 32.0358L17.2804 32.7009C17.0688 32.8231 16.7967 32.7499 16.6739 32.5372L11.3329 23.2863C11.21 23.0735 11.2828 22.8013 11.4943 22.6791L21.0941 17.1367L26.4351 26.3876L27.203 25.9442L21.8621 16.6933L23.014 16.0282C23.2256 15.9061 23.4977 15.9792 23.6206 16.192L28.9615 25.4429ZM30.0524 23.7852C30.1753 23.9979 30.1025 24.2702 29.891 24.3923L29.507 24.614L24.3885 15.7486C24.0205 15.1111 23.2041 14.8907 22.5689 15.2573L22.185 15.479L20.8497 13.1663L22.7697 12.0578C22.9812 11.9357 23.2533 12.0088 23.3762 12.2216L30.0524 23.7852ZM32.3454 20.6625L31.622 22.3651L30.5979 22.9563L27.0372 16.7891L28.0613 16.1978L29.8975 16.4225L32.3454 20.6625ZM33.325 18.8121L32.5571 19.2555L31.2218 16.9428L31.9898 16.4994L33.325 18.8121ZM34.4159 17.1544L33.6479 17.5978L33.2029 16.8269L33.9708 16.3835L34.4159 17.1544Z" fill="#27AE60"/></symbol><symbol id="icon-checked" viewBox="0 0 27 27" fill="none"><path d="M25.5 12.4029V13.5069C25.4985 16.0946 24.6606 18.6125 23.1112 20.6851C21.5618 22.7576 19.3839 24.2738 16.9024 25.0075C14.4209 25.7412 11.7687 25.6531 9.34136 24.7564C6.91402 23.8596 4.84158 22.2022 3.43315 20.0313C2.02472 17.8605 1.35575 15.2925 1.52601 12.7104C1.69627 10.1283 2.69665 7.67046 4.37794 5.70335C6.05922 3.73625 8.33134 2.36533 10.8554 1.79504C13.3795 1.22476 16.0203 1.48567 18.384 2.53887" stroke="#27AE60" stroke-width="3" stroke-linecap="round" stroke-linejoin="round"/>
<path d="M25.5001 4.07141L13.632 16.0714L10.0715 12.475" stroke="#27AE60" stroke-width="3" stroke-linecap="round" stroke-linejoin="round"/></symbol><symbol id="icon-location-stc" viewBox="0 0 32 32" fill="none"><circle cx="16" cy="16" r="16" fill="#27AE60"/>
<path d="M16 7C12.6947 7 10 9.60045 10 12.7901C10 16.3088 13.6195 21.7273 15.236 23.9717C15.6167 24.5003 16.3822 24.4992 16.7617 23.9699C18.3772 21.7172 22 16.2744 22 12.7698C22 9.58013 19.3053 7 16 7ZM16 15.9594C14.1474 15.9594 12.6316 14.4966 12.6316 12.7088C12.6316 10.921 14.1474 9.45824 16 9.45824C17.8526 9.45824 19.3684 10.921 19.3684 12.7088C19.3684 14.4966 17.8526 15.9594 16 15.9594Z" fill="white"/></symbol><symbol id="icon-play-stc" viewBox="0 0 69 47" fill="none"><path d="M67.519 10.1284C67.519 10.1284 66.8512 5.52814 64.808 3.50246C62.2173 0.842944 59.3061 0.829875 57.9774 0.673048C48.4291 0 34.1134 0 34.1134 0H34.0867C34.0867 0 19.7709 0 10.2227 0.673048C8.89391 0.829875 5.98269 0.842944 3.39197 3.50246C1.34878 5.52814 0.681065 10.1284 0.681065 10.1284C0.681065 10.1284 0 15.5258 0 20.9298V25.994C0 31.398 0.681065 36.7955 0.681065 36.7955C0.681065 36.7955 1.34878 41.3957 3.39197 43.4214C5.98937 46.0809 9.3947 45.996 10.9104 46.277C16.3656 46.7866 34.1 46.95 34.1 46.95C34.1 46.95 48.4291 46.9304 57.9774 46.2508C59.3128 46.094 62.2173 46.0809 64.808 43.4214C66.8512 41.3957 67.519 36.7955 67.519 36.7955C67.519 36.7955 68.2 31.3915 68.2 25.994V20.9298C68.2 15.5258 67.519 10.1284 67.519 10.1284ZM27.0557 32.1299V13.376L45.4845 22.7856L27.0557 32.1299Z" fill="#282928" fill-opacity="0.8"/>
<path d="M27.0557 32.1296L45.4845 22.7855L27.0557 13.376V32.1296Z" fill="white"/>
<path opacity="0.12" fill-rule="evenodd" clip-rule="evenodd" d="M27.0557 13.376L43.2143 23.9355L45.4845 22.7854L27.0557 13.376Z" fill="black"/></symbol><symbol id="icon-play" viewBox="0 0 100 100" fill="none"><circle cx="50" cy="50" r="49" stroke="white" stroke-width="2"/>
<path d="M38.7722 29.2278L70.1776 50.1776L38.7722 71.1276L38.7722 50.1777L38.7722 29.2278Z" fill="white"/></symbol><symbol id="icon-slider-btn" viewBox="0 0 50 32" fill="none"><path d="M37.3516 10.3184L42.5371 17.1562V17.4902L37.3516 24.3281H34.8555L39.3906 17.332L34.8555 10.3184H37.3516ZM43.4863 10.3184L48.6719 17.1562V17.4902L43.4863 24.3281H40.9902L45.5254 17.332L40.9902 10.3184H43.4863Z" fill="white"/>
<path d="M4.9668 17.3672L9.50195 24.3457H7.02344L1.83789 17.5254V17.1914L7.02344 10.3535H9.50195L4.9668 17.3672ZM10.7676 17.3672L15.3027 24.3457H12.8242L7.63867 17.5254V17.1914L12.8242 10.3535H15.3027L10.7676 17.3672Z" fill="white"/>
<line x1="24.5" y1="2" x2="24.5" y2="32" stroke="white"/></symbol></svg>