<svg xmlns="http://www.w3.org/2000/svg" style="display:none"><symbol id="icon-facebook" viewBox="0 0 38 38" fill="none"><g clip-path="url(#clip0_9101_97)">
<path fill-rule="evenodd" clip-rule="evenodd" d="M20.297 38H2.09731C0.938657 38 0 37.0608 0 35.9026V2.0973C0 0.938802 0.938804 0 2.09731 0H35.9028C37.061 0 38 0.938802 38 2.0973V35.9026C38 37.0609 37.0609 38 35.9028 38H26.2195V23.2843H31.1588L31.8984 17.5493H26.2195V13.8879C26.2195 12.2275 26.6805 11.096 29.0615 11.096L32.0984 11.0947V5.96528C31.5732 5.89539 29.7705 5.73925 27.6731 5.73925C23.2947 5.73925 20.297 8.41188 20.297 13.32V17.5493H15.345V23.2843H20.297V38Z" fill="#4460A0"/>
</g>
<defs>
<clipPath id="clip0_9101_97">
<rect width="38" height="38" fill="white"/>
</clipPath>
</defs></symbol><symbol id="icon-instagram" viewBox="0 0 38 38" fill="none"><mask id="mask0_9101_103" style="mask-type:alpha" maskUnits="userSpaceOnUse" x="0" y="0" width="38" height="38">
<rect width="38" height="38" rx="2" fill="#41ABE1"/>
</mask>
<g mask="url(#mask0_9101_103)">
<path d="M19.0067 -1.72726C12.0359 -1.72726 4.74996 -1.78125 -1.5365 -1.78125C-1.67678 -0.811769 -1.71759 7.30295 -1.72588 12.255C-1.72907 13.9056 -1.72588 16.078 -1.72588 18.9919C-1.72588 27.6407 -1.71631 39.2362 -1.67487 39.7273C5.93746 39.7273 7.41573 39.7273 18.9624 39.7273C26.527 39.7273 33.25 39.7273 39.6874 39.7273C39.7155 39.3701 39.7273 24.6736 39.7273 18.9865C39.7273 11.9656 39.7812 2.96875 39.7812 -1.53719C38 -1.53719 30.7075 -1.71865 25.753 -1.72726H19.0067Z" fill="url(#paint0_radial_9101_103)"/>
<path d="M19.0067 -1.72726C12.0359 -1.72726 4.74996 -1.78125 -1.5365 -1.78125C-1.67678 -0.811769 -1.71759 7.30295 -1.72588 12.255C-1.72907 13.9056 -1.72588 16.078 -1.72588 18.9919C-1.72588 27.6407 -1.71631 39.2362 -1.67487 39.7273C5.93746 39.7273 7.41573 39.7273 18.9624 39.7273C26.527 39.7273 33.25 39.7273 39.6874 39.7273C39.7155 39.3701 39.7273 24.6736 39.7273 18.9865C39.7273 11.9656 39.7812 2.96875 39.7812 -1.53719C38 -1.53719 30.7075 -1.71865 25.753 -1.72726H19.0067Z" fill="url(#paint1_radial_9101_103)"/>
<path d="M19.0011 6.90915C15.7174 6.90915 15.3053 6.92351 14.0156 6.9822C12.7284 7.04114 11.8498 7.24492 11.081 7.54392C10.2857 7.85274 9.61115 8.26585 8.93909 8.93815C8.26653 9.61021 7.85342 10.2848 7.54358 11.0798C7.24383 11.8488 7.03979 12.7276 6.98186 14.0143C6.92417 15.304 6.90906 15.7164 6.90906 19.0001C6.90906 22.2837 6.92367 22.6946 6.98211 23.9843C7.0413 25.2715 7.24509 26.1501 7.54384 26.9188C7.85291 27.7141 8.26602 28.3886 8.93834 29.0607C9.61014 29.7333 10.2847 30.1474 11.0795 30.4562C11.8487 30.7552 12.7276 30.959 14.0146 31.0179C15.3043 31.0766 15.7161 31.091 18.9996 31.091C22.2836 31.091 22.6944 31.0766 23.9841 31.0179C25.2713 30.959 26.1509 30.7552 26.9202 30.4562C27.7152 30.1474 28.3888 29.7333 29.0606 29.0607C29.7332 28.3886 30.1463 27.7141 30.4561 26.9191C30.7533 26.1501 30.9574 25.2712 31.0178 23.9845C31.0758 22.6948 31.0909 22.2837 31.0909 19.0001C31.0909 15.7164 31.0758 15.3043 31.0178 14.0146C30.9574 12.7274 30.7533 11.8488 30.4561 11.08C30.1463 10.2848 29.7332 9.61021 29.0606 8.93815C28.388 8.2656 27.7155 7.85249 26.9195 7.54392C26.1487 7.24492 25.2695 7.04114 23.9824 6.9822C22.6926 6.92351 22.2821 6.90915 18.9973 6.90915H19.0011ZM17.9164 9.08803C18.2384 9.08753 18.5976 9.08803 19.0011 9.08803C22.2294 9.08803 22.612 9.09962 23.8869 9.15755C25.0658 9.21146 25.7056 9.40844 26.1318 9.57394C26.696 9.79308 27.0983 10.0551 27.5213 10.4782C27.9444 10.9014 28.2064 11.3044 28.4261 11.8687C28.5916 12.2944 28.7888 12.9342 28.8424 14.1131C28.9004 15.3876 28.913 15.7705 28.913 18.9973C28.913 22.224 28.9004 22.6069 28.8424 23.8815C28.7885 25.0604 28.5916 25.7002 28.4261 26.1259C28.2069 26.6901 27.9444 27.0919 27.5213 27.5148C27.0981 27.938 26.6963 28.2 26.1318 28.4191C25.7061 28.5854 25.0658 28.7819 23.8869 28.8358C22.6123 28.8937 22.2294 28.9063 19.0011 28.9063C15.7725 28.9063 15.3899 28.8937 14.1153 28.8358C12.9364 28.7814 12.2966 28.5844 11.8702 28.4189C11.3059 28.1997 10.9029 27.9378 10.4797 27.5146C10.0565 27.0914 9.79453 26.6894 9.57488 26.1249C9.40938 25.6992 9.21215 25.0594 9.15849 23.8805C9.10056 22.6059 9.08897 22.223 9.08897 18.9943C9.08897 15.7655 9.10056 15.3846 9.15849 14.11C9.2124 12.9312 9.40938 12.2914 9.57488 11.8652C9.79403 11.3009 10.0565 10.8979 10.4797 10.4747C10.9029 10.0515 11.3059 9.78956 11.8702 9.5699C12.2964 9.40365 12.9364 9.20718 14.1153 9.15302C15.2307 9.10264 15.663 9.08753 17.9164 9.08501V9.08803ZM25.4552 11.0956C24.6542 11.0956 24.0043 11.7448 24.0043 12.546C24.0043 13.3471 24.6542 13.9969 25.4552 13.9969C26.2562 13.9969 26.9061 13.3471 26.9061 12.546C26.9061 11.745 26.2562 11.0951 25.4552 11.0951V11.0956ZM19.0011 12.7909C15.572 12.7909 12.7918 15.571 12.7918 19.0001C12.7918 22.4291 15.572 25.208 19.0011 25.208C22.4302 25.208 25.2093 22.4291 25.2093 19.0001C25.2093 15.571 22.4299 12.7909 19.0008 12.7909H19.0011ZM19.0011 14.9698C21.2269 14.9698 23.0314 16.7741 23.0314 19.0001C23.0314 21.2258 21.2269 23.0304 19.0011 23.0304C16.7751 23.0304 14.9708 21.2258 14.9708 19.0001C14.9708 16.7741 16.7751 14.9698 19.0011 14.9698V14.9698Z" fill="white"/>
</g>
<defs>
<radialGradient id="paint0_radial_9101_103" cx="0" cy="0" r="1" gradientUnits="userSpaceOnUse" gradientTransform="translate(9.28412 42.9204) rotate(-90) scale(41.0845 38.2118)">
<stop stop-color="#FFDD55"/>
<stop offset="0.1" stop-color="#FFDD55"/>
<stop offset="0.5" stop-color="#FF543E"/>
<stop offset="1" stop-color="#C837AB"/>
</radialGradient>
<radialGradient id="paint1_radial_9101_103" cx="0" cy="0" r="1" gradientTransform="matrix(3.60932 18.0312 -74.3236 14.8858 -8.68019 1.20896)" gradientUnits="userSpaceOnUse">
<stop stop-color="#3771C8"/>
<stop offset="0.128" stop-color="#3771C8"/>
<stop offset="1" stop-color="#6600FF" stop-opacity="0"/>
</radialGradient>
</defs></symbol><symbol id="icon-popup" viewBox="0 0 90 90" fill="none"><path d="M45 0C69.8528 0 90 20.1472 90 45C90 69.8528 69.8528 90 45 90C20.1472 90 0 69.8528 0 45C0 20.1472 20.1472 0 45 0ZM45 5C22.9086 5 5 22.9086 5 45C5 67.0914 22.9086 85 45 85C67.0914 85 85 67.0914 85 45C85 22.9086 67.0914 5 45 5Z" fill="#27AE60"/>
<path fill-rule="evenodd" clip-rule="evenodd" d="M59.5433 33.7276L42.0193 51.3486L31.5479 40.8185C31.3041 40.5644 31.0124 40.3618 30.6898 40.2223C30.3672 40.0828 30.0201 40.0093 29.669 40.0061C29.3178 40.0029 28.9695 40.0699 28.6444 40.2035C28.3194 40.337 28.0239 40.5343 27.7755 40.7838C27.5271 41.0334 27.3306 41.3303 27.1975 41.657C27.0643 41.9837 26.9972 42.3338 27.0001 42.6868C27.003 43.0399 27.0758 43.3889 27.2142 43.7134C27.3527 44.0379 27.554 44.3314 27.8065 44.5769L40.1486 56.986C40.6446 57.4845 41.3172 57.7643 42.0185 57.7643C42.7198 57.7643 43.3923 57.4845 43.8883 56.986L63.283 37.486C63.7561 36.9828 64.0154 36.3138 64.0056 35.6215C63.9959 34.9291 63.718 34.2679 63.2309 33.7784C62.7438 33.2889 62.086 33.0097 61.3973 33.0002C60.7087 32.9908 60.0436 33.2516 59.5433 33.7276Z" fill="#27AE60"/></symbol><symbol id="icon-youtube" viewBox="0 0 38 38" fill="none"><rect width="38" height="38" rx="2" fill="#CE1312"/>
<path fill-rule="evenodd" clip-rule="evenodd" d="M16.3155 22.0038L16.3147 14.4137L23.3396 18.2219L16.3155 22.0038ZM31.74 13.0985C31.74 13.0985 31.4857 11.2371 30.7065 10.4174C29.7177 9.34106 28.6094 9.33598 28.1016 9.27351C24.4632 9 19.0057 9 19.0057 9H18.9943C18.9943 9 13.5368 9 9.89838 9.27351C9.38975 9.33598 8.28232 9.34106 7.29269 10.4174C6.5135 11.2371 6.26 13.0985 6.26 13.0985C6.26 13.0985 6 15.2849 6 17.4705V19.5202C6 21.7066 6.26 23.8922 6.26 23.8922C6.26 23.8922 6.5135 25.7536 7.29269 26.5733C8.28232 27.6497 9.5815 27.6159 10.16 27.7282C12.24 27.9358 19 28 19 28C19 28 24.4632 27.9916 28.1016 27.718C28.6094 27.6547 29.7177 27.6497 30.7065 26.5733C31.4857 25.7536 31.74 23.8922 31.74 23.8922C31.74 23.8922 32 21.7066 32 19.5202V17.4705C32 15.2849 31.74 13.0985 31.74 13.0985Z" fill="white"/></symbol></svg>