<svg width="184" height="67" fill="none" xmlns="http://www.w3.org/2000/svg"><path d="M33.5 67C52.002 67 67 52.002 67 33.5 67 14.998 52.002 0 33.5 0 14.998 0 0 14.998 0 33.5 0 52.002 14.998 67 33.5 67Z" fill="red"/><path fill-rule="evenodd" clip-rule="evenodd" d="m31.765 36.063 6.475 13.603-11.503.076-6.043-16.953h4.164c1.143 0 2.311-.406 3.479-1.243 1.168-.838 1.93-2.234 2.26-4.213a7.987 7.987 0 0 0 .228-1.827c0-2.716-1.37-4.086-4.088-4.086h-4.062l-4.977 28.246H6.983l5.967-33.931h18.56c3.048 0 5.51.634 7.314 1.928 1.828 1.295 2.742 3.325 2.742 6.142 0 .762-.076 1.6-.229 2.538-.38 2.31-1.066 4.162-2.056 5.533-.99 1.37-2.006 2.335-3.073 2.893-1.066.584-2.056.913-2.97 1.066-.89.127-1.397.203-1.473.228Zm15.184 3.706h14.473c.102 0 .305-.787.61-2.335.33-1.548.482-3.071.482-4.594 0-2.386-.482-4.162-1.447-5.304-.99-1.168-2.184-1.904-3.58-2.259-1.397-.33-3.276-.507-5.688-.507-7.72.177-12.315 4.593-13.762 13.273a18.65 18.65 0 0 0-.305 3.477c0 5.557 2.895 8.502 8.684 8.806.178 0 .457 0 .812.025.356.026.66.026.864.026 2.488 0 4.646-.229 6.5-.66 1.854-.431 3.123-.787 3.86-1.091l2.081-5.837c-.66.431-1.853.964-3.554 1.624-1.701.634-3.682 1.015-5.993 1.091-2.869 0-4.29-1.345-4.29-4.01.025-1.142.1-1.725.253-1.725Zm6.043-9.695c2.286.177 3.428 1.345 3.428 3.502-.076 1.294-.203 1.954-.38 1.954h-8.355c.051-.913.432-2.056 1.143-3.4.736-1.371 2.107-2.056 4.164-2.056Z" fill="#fff"/><path d="M79.4 32.206c0 .558.355.964 1.04 1.167.686.203 1.905.432 3.606.635 1.701.203 3.022.457 3.91.71 2.971.914 4.47 2.69 4.47 5.355 0 .28-.026.71-.102 1.27-.762 5.76-4.698 8.806-11.858 9.136-.381.025-.94.05-1.676.05-2.412 0-4.469-.203-6.17-.634-1.727-.406-2.59-.71-2.59-.838V42.89c.508.457 1.422 1.016 2.793 1.726 1.346.685 3.022 1.066 5.028 1.117 2.133 0 3.707-.229 4.697-.685 1.016-.457 1.6-1.219 1.752-2.31 0-.964-.355-1.675-1.066-2.081-.711-.406-1.625-.71-2.743-.837-1.117-.127-2.463-.305-4.012-.483-1.6-.279-2.843-.786-3.732-1.472-.889-.685-1.32-1.776-1.32-3.299 0-.863.177-1.903.533-3.147.66-2.132 2.285-3.883 4.875-5.228 1.498-.736 3.479-1.167 5.992-1.32a35.19 35.19 0 0 1 1.956-.05c2.209 0 4.011.152 5.382.482 1.372.33 2.311.584 2.794.787l.533 4.923s-.432-.152-1.244-.457c-.813-.304-1.829-.583-3.047-.837-1.22-.254-2.641-.38-4.266-.38-3.53 0-5.383.963-5.535 2.867Zm21.862-2.766h-6.5l.736-4.087h20.719l-.736 4.086h-6.5L105.4 49.793h-7.719l3.581-20.354Zm14.193 16.75-2.005 3.603h-5.536l13.432-24.44h6.983l4.977 24.44h-8.176l-.737-3.604h-8.938Zm8.024-4.264-1.472-7.512-4.19 7.512h5.662Zm29.937-1.929 4.672 9.796-8.303.051-4.367-12.232h2.996c.838 0 1.676-.305 2.514-.889.837-.609 1.396-1.599 1.65-3.045.102-.482.152-.914.152-1.32 0-1.954-.965-2.944-2.945-2.944h-2.92l-3.58 20.354h-7.719l4.316-24.44h13.382c2.209 0 3.961.457 5.281 1.396 1.32.94 1.981 2.411 1.981 4.441 0 .533-.051 1.142-.153 1.828-.279 1.675-.787 2.994-1.473 3.984-.685.99-1.447 1.675-2.234 2.081-.762.406-1.473.66-2.133.761-.685.102-1.041.153-1.117.178Zm15.489-10.557h-6.5l.736-4.087h20.72l-.737 4.086h-6.5l-3.58 20.354h-7.719l3.58-20.354Z" fill="#000"/></svg>